<?xml version="1.0" encoding="UTF-8" standalone="no"?>
<svg
   xmlns:dc="http://purl.org/dc/elements/1.1/"
   xmlns:cc="http://creativecommons.org/ns#"
   xmlns:rdf="http://www.w3.org/1999/02/22-rdf-syntax-ns#"
   xmlns:svg="http://www.w3.org/2000/svg"
   xmlns="http://www.w3.org/2000/svg"
   xmlns:sodipodi="http://sodipodi.sourceforge.net/DTD/sodipodi-0.dtd"
   xmlns:inkscape="http://www.inkscape.org/namespaces/inkscape"
   width="1000"
   height="1000"
   viewBox="0 0 264.58333 264.58334"
   version="1.1"
   id="svg849"
   inkscape:export-filename="/home/samsepiol/montage/wire_fames/assurance_egalite/logo_acceuil_rose.png"
   inkscape:export-xdpi="3.9400001"
   inkscape:export-ydpi="3.9400001"
   sodipodi:docname="dessin_deconnexion.svg"
   inkscape:version="1.0.1 (3bc2e813f5, 2020-09-07)">
  <defs
     id="defs843" />
  <sodipodi:namedview
     id="base"
     pagecolor="#000000"
     bordercolor="#666666"
     borderopacity="1.0"
     inkscape:pageopacity="0"
     inkscape:pageshadow="2"
     inkscape:zoom="0.675"
     inkscape:cx="170.37037"
     inkscape:cy="555.55556"
     inkscape:document-units="mm"
     inkscape:current-layer="layer1"
     inkscape:document-rotation="0"
     showgrid="false"
     units="px"
     showguides="true"
     inkscape:guide-bbox="true"
     inkscape:window-width="1600"
     inkscape:window-height="845"
     inkscape:window-x="0"
     inkscape:window-y="27"
     inkscape:window-maximized="1" />
  <metadata
     id="metadata846">
    <rdf:RDF>
      <cc:Work
         rdf:about="">
        <dc:format>image/svg+xml</dc:format>
        <dc:type
           rdf:resource="http://purl.org/dc/dcmitype/StillImage" />
        <dc:title></dc:title>
      </cc:Work>
    </rdf:RDF>
  </metadata>
  <g
     inkscape:label="Calque 1"
     inkscape:groupmode="layer"
     id="layer1"
     style="display:inline">
    <path
       id="path855"
       style="fill:#2d2d2d;stroke-width:0.999999;fill-opacity:1"
       d="M 569.62891 194.4043 L 569.62891 235.44336 A 302.3622 302.3622 0 0 1 795.17969 527.88477 A 302.3622 302.3622 0 0 1 492.81836 830.24805 A 302.3622 302.3622 0 0 1 190.45508 527.88477 A 302.3622 302.3622 0 0 1 403.30859 239.07617 L 403.30859 198.35156 A 340.15748 340.15748 0 0 0 154.13477 526.11328 A 340.15748 340.15748 0 0 0 494.29297 866.27148 A 340.15748 340.15748 0 0 0 834.44922 526.11328 A 340.15748 340.15748 0 0 0 569.62891 194.4043 z "
       transform="scale(0.26458333)" />
    <rect
       style="fill:#2d2d2d;fill-opacity:1;stroke-width:0.264583"
       id="rect1438"
       width="11.175111"
       height="143.04317"
       x="122.7289"
       y="19.897533"
       ry="5.470973" />
  </g>
</svg>
